<svg width="30" height="30" fill="none" xmlns="http://www.w3.org/2000/svg"><path fill-rule="evenodd" clip-rule="evenodd" d="M12.47 4.678A10.65 10.65 0 0115 4.375c5.868 0 10.625 4.757 10.625 10.625 0 .871-.105 1.719-.303 2.53a5.625 5.625 0 01-7.793 7.793c-.81.197-1.658.302-2.529.302-5.868 0-10.625-4.757-10.625-10.625 0-.871.105-1.719.303-2.53a5.625 5.625 0 017.793-7.793zm4.41 9.413c.467.139.912.343 1.322.606a3.24 3.24 0 011.02 1.078c.26.48.393 1.02.383 1.565a3.218 3.218 0 01-.597 1.97 3.796 3.796 0 01-1.703 1.302 5.838 5.838 0 01-2.306.415 5.75 5.75 0 01-2.683-.58 3.86 3.86 0 01-1.372-1.215 3.006 3.006 0 01-.569-1.677 1.023 1.023 0 112.046 0c.02.187.092.365.206.515.163.233.379.425.63.559a3.773 3.773 0 001.742.352 3.85 3.85 0 001.521-.258 1.8 1.8 0 00.82-.598c.156-.218.234-.482.22-.749a1.236 1.236 0 00-.121-.598 1.152 1.152 0 00-.372-.377 3.09 3.09 0 00-.78-.352 17.154 17.154 0 00-.722-.2l-.018-.002-.042-.011-.014-.004a16.436 16.436 0 00-.508-.122 13.061 13.061 0 01-.962-.236.04.04 0 01-.012-.006.046.046 0 00-.01-.006c-.454-.11-.9-.25-1.337-.417a3.58 3.58 0 01-1.47-1.097 2.904 2.904 0 01-.594-1.832c0-.664.217-1.31.618-1.838a3.632 3.632 0 011.613-1.169 6.099 6.099 0 012.194-.358 5.9 5.9 0 011.736.242 4.09 4.09 0 011.35.684c.349.265.64.598.856.98a1.023 1.023 0 11-1.801.97 1.263 1.263 0 00-.333-.351 2.13 2.13 0 00-.678-.33 3.873 3.873 0 00-1.131-.149 4.104 4.104 0 00-1.455.221 1.634 1.634 0 00-.716.486.989.989 0 00-.21.61.862.862 0 00.164.58c.167.204.384.361.63.457.477.183.969.328 1.47.433.418.092.758.174 1.045.254.327.08.644.166.93.253z" fill="#323B48"/></svg>