<svg width="30" height="29" fill="none" xmlns="http://www.w3.org/2000/svg"><path fill-rule="evenodd" clip-rule="evenodd" d="M23.104 23.913v-.003l.023-.052 3.748-18.269v-.06c0-.455-.174-.852-.553-1.09-.331-.209-.712-.224-.98-.204-.282.02-.548.089-.732.146a4.098 4.098 0 00-.3.105l-.016.006-20.9 7.926-.006.002a2.232 2.232 0 00-.186.074c-.113.05-.27.126-.427.23-.269.178-.78.599-.694 1.266.072.553.466.904.731 1.086a2.61 2.61 0 00.544.282l.013.005.009.003 3.656 1.19c-.012.222.01.448.072.67l1.831 6.717c.218.797.963 1.351 1.815 1.35.763 0 1.44-.446 1.728-1.113l2.86-2.955 4.911 3.64.07.029c.446.188.863.248 1.244.198a1.88 1.88 0 00.91-.38 2.13 2.13 0 00.615-.767l.01-.021.003-.008v-.003zM8.919 16.765a.357.357 0 01.161-.399l12.403-7.613s.73-.428.703 0c0 0 .13.075-.26.428-.371.335-8.84 8.239-9.697 9.038a.333.333 0 00-.096.164L10.75 23.48l-1.83-6.715z" fill="#323B48"/></svg>