<svg width="30" height="30" fill="none" xmlns="http://www.w3.org/2000/svg"><path fill-rule="evenodd" clip-rule="evenodd" d="M20.845 3.284a27.376 27.376 0 00-11.943 0l-.424.095a6.131 6.131 0 00-4.605 4.475 24.334 24.334 0 000 11.971 6.131 6.131 0 004.305 4.4l.58 3.47a.625.625 0 001.034.363l3.413-3.054a27.379 27.379 0 007.64-.609l.424-.094a6.13 6.13 0 004.605-4.476 24.333 24.333 0 000-11.97 6.13 6.13 0 00-4.605-4.476l-.424-.095zM9.955 7.752a1.027 1.027 0 00-.67.132h-.017a5.148 5.148 0 00-1.252 1.03c-.3.346-.462.696-.505 1.033-.025.201-.008.402.052.594l.021.013c.338.991.778 1.945 1.316 2.842a16.714 16.714 0 002.538 3.47l.03.042.046.034.03.035.034.03a16.957 16.957 0 003.479 2.55c1.443.785 2.32 1.157 2.845 1.311v.008c.154.047.295.069.436.069a2.01 2.01 0 001.205-.517 4.97 4.97 0 001.017-1.256v-.008c.252-.475.167-.923-.197-1.227a15.15 15.15 0 00-2.35-1.687c-.56-.304-1.128-.12-1.358.188l-.492.62c-.252.307-.71.264-.71.264l-.012.008c-3.414-.872-4.324-4.328-4.324-4.328s-.043-.47.273-.71l.615-.495c.294-.24.5-.807.184-1.367a14.752 14.752 0 00-1.684-2.35.935.935 0 00-.55-.33v.002zm5.77-1.502a.625.625 0 100 1.25c1.58 0 2.893.517 3.93 1.506.535.542.95 1.183 1.223 1.885.274.704.4 1.455.367 2.207a.625.625 0 101.249.053 6.7 6.7 0 00-.45-2.713 6.804 6.804 0 00-1.506-2.317l-.012-.012c-1.288-1.232-2.92-1.859-4.802-1.859zm-.043 2.055a.625.625 0 100 1.25h.02c1.14.08 1.97.461 2.552 1.085.596.643.904 1.441.882 2.429a.625.625 0 101.25.029c.03-1.297-.388-2.416-1.216-3.308v-.002c-.847-.907-2.007-1.387-3.405-1.481l-.02-.002h-.063zm-.024 2.093a.625.625 0 00-.066 1.249c.524.027.857.184 1.067.396.21.213.368.553.397 1.087a.625.625 0 001.248-.067c-.04-.75-.275-1.413-.757-1.9-.483-.487-1.142-.725-1.89-.765z" fill="#323B48"/></svg>