<svg width="29" height="29" fill="none" xmlns="http://www.w3.org/2000/svg"><path d="M11.892 8.994h0c.159.353.42.991.63 1.503l.004.008a126.68 126.68 0 00.32.766c0 .001 0 .001 0 0l-.447.225m-.507-2.502l.98 3.262c.198-.405.087-.758-.026-.985l-.447.225m-.507-2.502c-.14-.313-.318-.547-.559-.687-.231-.134-.459-.14-.571-.143h-.01m1.14.83l-1.14-.83m1.647 3.332c.078.154.125.333.024.541L11.437 9.2c.154.345.415.98.627 1.496h0c.165.402.3.733.335.8zm3.57 5.472a4.733 4.733 0 00-.22-.099l-.01-.004h0a7.52 7.52 0 01-2.165-1.364h0c-.848-.752-1.437-1.689-1.621-2.004l.045-.046h0c.106-.105.22-.244.316-.36l.01-.011c.059-.072.114-.138.165-.197h0c.181-.208.264-.379.346-.55l.004-.008h0l.033-.068 2.874 5.159m.223-.448l-.223.448m.223-.448s0 0 0 0l-.223.448m.223-.448a.82.82 0 00.08.036m-.303.412c.311.154.496.13.676-.078.179-.208.777-.904.986-1.213m-1.358.879a3.62 3.62 0 00-.007.008h0l-.023.024.003-.002a.12.12 0 01.03-.013s0 0 0 0a.132.132 0 01.022-.005h.017l-.011-.003a.312.312 0 01-.031-.01zm0 0c.196-.228.754-.88.942-1.157m0 0a.04.04 0 00-.002.003l.418.275m-.416-.278l.002-.003.414.28m-.416-.277c.155-.235.374-.417.676-.453.249-.029.48.057.613.107h.001c.171.064.653.292 1.097.506.46.221.921.448 1.079.526h0c.058.03.112.055.166.081l.013.006c.097.047.208.1.302.157.097.06.231.155.324.312l-.43.255-2.726-1.374c-.287-.107-.496-.155-.699.155m-6.656-7.96c-.187-.007-.402-.007-.607-.007h-.006c-.323 0-.8.119-1.197.547m1.81-.54l-1.609 7.047-.037-.055-.013-.019-.006-.008h0a8.179 8.179 0 01-.746-1.198c-.31-.614-.62-1.436-.62-2.3 0-1.632.818-2.501 1.168-2.87h0c.02-.023.038-.041.053-.057m0 0l.367.34-.367-.34zm.09 15.773a.5.5 0 00-.364-.044l-5.54 1.447 1.48-5.37a.5.5 0 00-.05-.383 11.433 11.433 0 01-1.54-5.735v0c0-6.325 5.178-11.476 11.533-11.476 3.09 0 5.981 1.197 8.159 3.364a11.375 11.375 0 013.373 8.118c0 6.325-5.177 11.476-11.532 11.476h-.006c-1.931 0-3.828-.485-5.512-1.397zm5.599-4.491l.183-.465-.183.465s0 0 0 0zm-5.137-5.148l-.4.3h0l.4-.3z" fill="#323B48" stroke="#323B48" stroke-linejoin="round"/></svg>