<svg width="34" height="34" fill="none" xmlns="http://www.w3.org/2000/svg"><path fill-rule="evenodd" clip-rule="evenodd" d="M8.397 8.398L0 16.795v8.438c0 6.38.04 8.478.165 8.603.121.121 1.43.164 5.037.164h4.872l2.64-2.638 2.64-2.638v1.651c0 1.101.056 1.706.165 1.815.123.123 1.492.165 5.314.165h5.149l4.009-4.011L34 24.333V22.75c0-1.048-.056-1.638-.164-1.747-.117-.117-.958-.164-2.913-.164h-2.747l2.912-2.915L34 15.01v-1.583c0-1.047-.056-1.637-.164-1.746-.123-.122-1.492-.165-5.314-.165h-5.15l-2.465 2.468c-2.188 2.19-2.515 2.468-2.912 2.468h-.447v-2.538l4.662-4.66 4.661-4.66V2.462c0-1.476-.05-2.184-.165-2.297C26.585.043 25.276 0 21.668 0h-4.874L8.397 8.398zm8.946.376l-7.677 7.678H1.852l7.676-7.678 7.677-7.677h7.814l-7.676 7.677zm.794 3.045l-7.65 7.651-.04-1.126-.04-1.126 7.65-7.65 7.649-7.651.04 1.126.04 1.126-7.649 7.65zm10.722 4.084l-3.288 3.29h-8.363l3.288-3.29 3.288-3.29h8.363l-3.288 3.29zm.797 1.946l-3.265 3.269-.043-.575-.043-.575 3.265-3.269 3.265-3.269.043.575.043.575-3.265 3.27zm-13.044-.478c.08.097.277.177.436.177.228 0 .083.207-.703.998-.896.902-.99 1.049-.99 1.543 0 .534-.098.643-4.387 4.931L6.58 29.406v1.304H3.29V19.742h3.291v.658c0 .362.074.732.164.823.11.109.7.164 1.75.164h1.584l3.152-3.155 3.152-3.155.04 1.058c.023.582.108 1.138.189 1.236zm-7.29 1.548v1.371H7.678v-.658c0-.362-.074-.732-.164-.822-.232-.232-4.924-.232-5.155 0-.237.236-.237 12.595 0 12.832.231.231 4.923.231 5.155 0 .09-.09.164-.46.164-.823v-.658h1.646v2.742H1.097V17.548h8.226v1.371zm15.904 2.194v.823h-3.4c-2.462 0-3.446.045-3.565.164-.234.234-.234 7.114 0 7.348.12.12 1.103.165 3.565.165h3.4v1.645h-8.774V20.29h8.774v.823zm3.633 4.113l-3.288 3.29h-6.378v-5.484h6.8l.535-.548.536-.549h5.083l-3.288 3.29zm-16.339.983l-2.852 2.855H8.434l3.426-3.43 3.426-3.43.044.576.043.574-2.853 2.855zm17.136.963l-3.265 3.269-.043-.576-.043-.574 3.265-3.27 3.265-3.268.043.575.043.575-3.265 3.269zm-16.763 2.502l-2.474 2.474v-2.327l2.434-2.437 2.433-2.437.04 1.127.04 1.127-2.473 2.473z" fill="#606774"/></svg>