<svg width="38" height="34" fill="none" xmlns="http://www.w3.org/2000/svg"><path fill-rule="evenodd" clip-rule="evenodd" d="M3.386.21c-.874.304-1.438.805-1.796 1.597-.3.662-.39.745-.803.745-.996 0-1.03.936-.037 1.023.45.04.547.13.848.794.225.497.539.883.932 1.146l.592.397-.707.727-.706.726-.472-.463c-.93-.913-1.694-.24-.795.7l.481.502-.467.54c-.505.582-.567.819-.29 1.1.29.294.594.211 1.118-.304l.494-.484 2.484 2.516 2.483 2.516-2.483 2.516-2.484 2.516-.494-.485C.76 18.02.456 17.937.166 18.23c-.289.293-.208.601.297 1.129l.475.496-.475.496c-.552.577-.601.93-.162 1.168.268.145.382.102.787-.296.26-.256.537-.465.614-.465.077 0 1.226 1.098 2.553 2.441l2.414 2.442-2.672 2.721c-1.47 1.497-2.672 2.797-2.672 2.89 0 .217.418.64.633.64.09 0 1.374-1.218 2.852-2.706l2.686-2.707 2.486 2.522 2.486 2.522-.819.819c-.88.88-1 1.246-.503 1.516.28.152.412.074 1.183-.7l.868-.87.886.856c.486.47.952.855 1.034.855.192 0 .615-.428.615-.624 0-.083-.38-.555-.846-1.05l-.846-.898 2.48-2.513L19 26.402l2.48 2.513 2.48 2.513-.846.899c-.466.494-.846.966-.846 1.05 0 .194.423.623.616.623.081 0 .547-.385 1.034-.855l.885-.856.888.89c.742.744.932.864 1.146.728.493-.312.37-.707-.481-1.559l-.824-.824 2.486-2.522 2.486-2.522 2.686 2.707c1.478 1.488 2.761 2.706 2.852 2.706.092 0 .271-.106.4-.236.128-.13.233-.312.233-.405 0-.092-1.202-1.392-2.672-2.889l-2.672-2.721 2.414-2.442c1.328-1.343 2.477-2.441 2.553-2.441.077 0 .353.21.614.465.405.398.52.44.787.296.439-.238.39-.591-.162-1.168l-.474-.496.474-.496c.505-.528.586-.836.297-1.13-.29-.293-.594-.21-1.119.305l-.493.485-2.484-2.516-2.483-2.516 2.483-2.516 2.484-2.516.493.484c.525.515.829.598 1.119.304.277-.281.215-.518-.29-1.1l-.467-.54.481-.503c.9-.94.135-1.612-.795-.699l-.472.463-.706-.726-.707-.727.592-.397c.393-.263.707-.649.932-1.146.3-.664.397-.755.848-.794.992-.087.96-1.02-.036-1.025-.413-.002-.506-.09-.836-.784-.28-.588-.553-.895-1.102-1.24-.723-.452-.754-.457-3.131-.507-1.474-.03-2.641.015-3.022.12-.798.217-1.63.961-1.986 1.773l-.279.64h-2.942l-.28-.64c-.344-.788-1.175-1.549-1.921-1.759-.728-.204-4.702-.204-5.43 0-.746.21-1.577.971-1.921 1.76l-.28.639h-2.942l-.28-.64C10.513 1.11 9.678.356 8.902.145 8.573.055 7.76.002 7.095.025c-.959.035-1.242.1-1.372.309-.119.19-.119.335 0 .526.131.213.447.278 1.633.339.808.041 1.62.162 1.802.268.726.42 1.004 1.718.556 2.596-.401.787-.836.897-3.517.897-2.762 0-3.213-.144-3.63-1.156-.407-.985.158-2.287 1.096-2.526.536-.136.781-.354.781-.694 0-.432-.442-.588-1.058-.374zm18.421 1.206c1.271.665 1.271 2.66 0 3.325-.312.164-1.01.218-2.807.218s-2.495-.054-2.807-.218c-1.255-.657-1.273-2.634-.031-3.318.56-.309 5.059-.314 5.645-.007zm12.952.125c.717.488 1.008 1.37.712 2.157-.125.334-.43.724-.717.92-.468.32-.65.341-2.935.341-1.887 0-2.535-.051-2.872-.228-1.159-.607-1.178-2.667-.03-3.298.311-.171.981-.225 2.872-.23 2.326-.005 2.494.014 2.97.338zM14.326 4.167c.128.31.377.718.553.908l.32.346-.96.974-.962.974-1.302-1.326-1.302-1.325.23-.556.229-.557h2.963l.231.562zm12.772-.005l.23.556-1.303 1.325-1.302 1.326-.961-.974-.962-.974.321-.346c.176-.19.425-.598.553-.908l.232-.562h2.961l.23.557zm-17.119 6.55l-2.487 2.523-2.488-2.517L2.515 8.2 3.5 7.195l.985-1.006 2.244-.052c1.754-.04 2.343-.107 2.69-.304l.446-.253 1.3 1.305 1.301 1.305-2.487 2.523zm21.275-4.578l2.228.051 1.004 1.002 1.003 1.002-2.487 2.523-2.488 2.523-2.488-2.518-2.49-2.518 1.287-1.31 1.287-1.31.458.252c.355.196.957.263 2.686.303zm-8.262.992l.982.994-2.487 2.52L19 13.159l-2.486-2.518-2.485-2.518.996-1.018.997-1.017 2.994.021 2.994.022.982.995zm-7.26 4.38l2.449 2.483-2.487 2.519-2.487 2.52-2.486-2.52-2.487-2.52 2.448-2.482c1.346-1.366 2.482-2.484 2.525-2.484.043 0 1.18 1.118 2.526 2.483zm11.586 0l2.448 2.483-2.487 2.519-2.486 2.52-2.487-2.52-2.487-2.52 2.448-2.482c1.346-1.366 2.483-2.484 2.526-2.484.043 0 1.179 1.118 2.525 2.483zM10.05 17.334l2.416 2.443L9.978 22.3l-2.486 2.522-2.49-2.518-2.489-2.519 2.412-2.447c1.327-1.346 2.479-2.447 2.56-2.447.082 0 1.236 1.1 2.564 2.444zm11.477.04l2.448 2.483-2.487 2.52L19 24.895l-2.487-2.52-2.487-2.519 2.448-2.483c1.347-1.366 2.483-2.484 2.526-2.484.043 0 1.18 1.118 2.526 2.484zm11.546-.04l2.415 2.443-2.482 2.518-2.481 2.517-1.068-1.049c-1.078-1.06-1.34-1.196-1.663-.868-.337.341-.176.657.863 1.702l1.04 1.046-2.487 2.523-2.487 2.524-2.416-2.444c-1.328-1.344-2.415-2.512-2.415-2.597 0-.085 1.088-1.254 2.417-2.6l2.417-2.444.809.829c.83.852 1.169.992 1.48.61.267-.324.09-.687-.738-1.513l-.745-.743 2.414-2.449c1.328-1.347 2.481-2.449 2.563-2.449.082 0 1.235 1.1 2.564 2.444zM18.11 25.646c0 .082-1.086 1.251-2.412 2.597l-2.412 2.447-2.49-2.519-2.49-2.519 2.487-2.522 2.486-2.522 2.416 2.444c1.328 1.344 2.415 2.51 2.415 2.594z" fill="#606774"/></svg>