<svg width="48" height="34" fill="none" xmlns="http://www.w3.org/2000/svg"><path fill-rule="evenodd" clip-rule="evenodd" d="M11.077.215C10.766.599 0 23.783 0 24.069c0 .505.52.663 3.29.993 1.544.185 2.905.432 3.026.55.12.118.5 1.086.845 2.151.345 1.065.726 2.04.846 2.165.249.26 5.824 1.112 6.236.954.149-.057.594-.76.991-1.562.51-1.032.808-1.435 1.018-1.375.163.046 1.278.192 2.478.324 1.2.132 2.255.334 2.345.448.09.114.447 1.08.793 2.145.347 1.065.728 2.04.849 2.165.248.259 5.824 1.112 6.236.954.148-.057.593-.758.988-1.557.596-1.205.786-1.439 1.114-1.37.218.047 1.561.227 2.984.4 2.166.265 2.628.273 2.837.056C37.192 31.18 48 7.984 48 7.637c0-.142-.112-.35-.248-.464-.311-.258-6.835-1.075-7.13-.893-.118.074-.501.762-.85 1.528l-.635 1.394-2.141-.306c-1.177-.168-2.22-.393-2.319-.5-.097-.106-.46-1.064-.805-2.13-.345-1.064-.726-2.04-.847-2.168-.256-.271-6.793-1.113-7.112-.916-.119.073-.502.76-.851 1.528l-.635 1.394-2.14-.306c-1.178-.168-2.221-.393-2.32-.5-.097-.106-.46-1.065-.805-2.13-.345-1.065-.726-2.042-.846-2.171-.12-.13-1.672-.413-3.447-.63-3.813-.466-3.546-.455-3.792-.152zM16.4 2.149c.233.05-9.292 20.806-9.85 21.466-.236.279-.452.279-2.432 0l-2.174-.306 4.921-10.555C9.571 6.95 11.87 2.061 11.971 1.892c.167-.275.392-.28 2.188-.05 1.101.14 2.11.279 2.24.307zm1.992 4.215c-.076.16-2.304 4.941-4.95 10.626L8.629 27.326l-.418-1.234c-.23-.678-.355-1.364-.279-1.524.076-.16 2.303-4.942 4.95-10.627l4.811-10.336.418 1.234c.23.679.355 1.365.28 1.524zM31.11 5.247c.232.05-9.293 20.807-9.85 21.466-.236.28-.452.28-2.433 0l-2.173-.305 4.921-10.555c2.707-5.805 5.005-10.693 5.107-10.862.167-.276.392-.28 2.188-.05 1.101.14 2.11.278 2.24.306zm1.99 4.215c-.076.16-2.303 4.942-4.95 10.627l-4.81 10.335-.418-1.233c-.23-.679-.355-1.365-.28-1.525.077-.16 2.304-4.941 4.95-10.626l4.812-10.336.418 1.234c.23.678.355 1.364.28 1.524zM22.153 7.355c.803.12 1.46.275 1.46.346 0 .119-8.705 18.802-9.67 20.754l-.438.885-1.769-.259c-.972-.142-1.832-.28-1.909-.304-.077-.025 1.997-4.62 4.61-10.213 2.612-5.592 4.87-10.45 5.018-10.796.307-.723.458-.746 2.698-.413zm23.666.991c.148.032-1.632 4.061-4.683 10.606-2.707 5.805-5.004 10.69-5.104 10.856-.162.268-.404.273-2.188.05a79.444 79.444 0 01-2.244-.302c-.147-.03 1.64-4.078 4.683-10.604 2.707-5.806 5.005-10.693 5.108-10.862.166-.276.392-.281 2.188-.051 1.1.14 2.109.279 2.24.307zm-8.956 2.108c.803.12 1.46.275 1.46.345 0 .12-8.706 18.802-9.67 20.754l-.438.886-1.769-.26c-.973-.142-1.832-.279-1.91-.304-.077-.024 1.998-4.62 4.61-10.212 2.613-5.592 4.87-10.45 5.018-10.797.307-.722.459-.745 2.699-.412z" fill="#606774"/></svg>