<svg width="41" height="35" fill="none" xmlns="http://www.w3.org/2000/svg"><path fill-rule="evenodd" clip-rule="evenodd" d="M10.787 10.573L0 21.147v6.732c0 5.02.05 6.781.198 6.927.15.146 2.534.194 9.714.194h9.514l10.787-10.573L41 13.853V7.121c0-5.02-.05-6.782-.198-6.927C40.667.062 39.885 0 38.364 0h-2.239l-4.498 4.407c-5.631 5.516-5.175 5.526-5.175-.106 0-2.827-.055-3.966-.199-4.107C26.12.062 25.337 0 23.814 0h-2.24L10.787 10.573zm3.513.445l-9.918 9.723H2.233l9.918-9.723 9.919-9.722h2.149L14.3 11.02zm14.549 0l-9.919 9.723h-2.149l9.919-9.723 9.918-9.722h2.149L28.85 11.02zm-3.184-1.822l.529.534-5.823 5.709-5.823 5.709v3.92c0 2.63-.063 4.057-.192 4.334l-.191.413H5.674l-.192-.413c-.127-.274-.192-1.645-.192-4.09v-3.68l9.878-9.682 9.878-9.683.045 3.197.045 3.197.529.535zm4.095 13.892l-9.921 9.724v-11.18l9.878-9.682 9.878-9.683.043 5.548.044 5.548-9.922 9.725zM3.972 25.723l.004 3.687.45.81.452.81H14.96l.452-.81.451-.81.004-3.687.004-3.686h2.645v11.667H1.323V22.037h2.645l.004 3.686z" fill="#606774"/></svg>