<svg width="34" height="34" fill="none" xmlns="http://www.w3.org/2000/svg"><path fill-rule="evenodd" clip-rule="evenodd" d="M23.587.142c-.31.101-.776.31-1.035.462-.713.42-14.306 11.603-14.944 12.295-1.27 1.377-1.92 3.708-1.517 5.443l.115.494-2.491 2.39c-1.917 1.837-2.588 2.57-2.912 3.176-1.387 2.6-.952 5.62 1.105 7.679 2.026 2.027 4.975 2.489 7.556 1.182.87-.44 2.237-1.739 2.65-2.518.174-.326.345-.591.382-.59.037 0 .186.255.333.564.146.31.626.923 1.065 1.362 2.574 2.574 6.624 2.556 9.15-.039.591-.606 1.575-2.195 4.907-7.925 4.349-7.48 4.405-7.599 3.576-7.599-.278 0-.7.66-3.381 5.283-1.685 2.905-3.1 5.285-3.146 5.288-.044.002-.118-.305-.163-.684-.218-1.84-1.75-3.834-3.63-4.726-.885-.42-1.203-.498-2.28-.563l-1.25-.075 5.197-6.209c2.904-3.469 5.328-6.25 5.493-6.302.575-.182 1.67-.083 2.36.213.837.36 1.893 1.466 2.12 2.219.22.735.2 2.076-.04 2.65-.281.672-.257 1.075.072 1.18.64.202 1.128-.928 1.12-2.597-.003-.955-.064-1.26-.386-1.967-.682-1.496-2.144-2.53-3.904-2.763l-.656-.087.334-.817c.259-.636.332-1.048.329-1.854-.004-.92-.059-1.147-.492-2.021C28.39 1 27.038.107 25.174.01c-.652-.034-1.229.013-1.587.13zm2.999 1.223c1.856.924 2.693 3.289 1.786 5.053-.207.404-8.756 10.827-9.375 11.43-.093.091-.109.002-.05-.278.276-1.309-.643-3.719-1.895-4.969-1.252-1.25-2.703-1.869-4.426-1.885-.522-.005-.93-.026-.906-.047.024-.021 2.5-2.057 5.504-4.524 3.051-2.507 5.754-4.626 6.126-4.803.958-.458 2.29-.448 3.236.023zM13.666 11.8c1.3.3 2.742 1.31 3.434 2.404 1.561 2.47.855 5.815-1.567 7.431-1.16.774-1.903.976-3.364.912-1.056-.046-1.356-.116-2.107-.484-1.039-.511-2.033-1.532-2.584-2.653-.343-.698-.376-.892-.376-2.228 0-1.367.028-1.52.423-2.354 1.096-2.312 3.693-3.592 6.142-3.028zm-2.635.769c-.982.326-1.332.564-1.332.905 0 .545.302.616 1.082.253.803-.373 2.127-.455 2.927-.18 1.733.596 2.851 2.475 2.518 4.232-.7 3.687-5.558 4.323-7.224.947-.298-.605-.337-1.19-.202-3.073.031-.433.006-.466-.353-.466-.555 0-.781.698-.715 2.207.062 1.432.496 2.373 1.53 3.316.91.832 1.9 1.21 3.169 1.21 2.02 0 3.64-1.04 4.49-2.886.242-.525.302-.89.302-1.852 0-1.033-.05-1.307-.375-2.01-1.011-2.184-3.596-3.341-5.817-2.603zm-4.085 7.962l.347.556-.982.005-.981.005.619-.584c.34-.32.626-.573.635-.56.009.012.172.273.362.578zm.728 1.645c1.3.3 2.74 1.309 3.433 2.404 1.76 2.785.684 6.459-2.308 7.874-.84.398-.991.425-2.366.425-1.39 0-1.515-.023-2.353-.435-1.05-.517-2.042-1.533-2.595-2.658-.343-.698-.376-.892-.376-2.228 0-1.37.027-1.52.427-2.362 1.08-2.278 3.72-3.577 6.138-3.02zm13.014.375c4.282 2.001 4.34 7.896.097 9.903-.84.398-.99.425-2.366.425-1.39 0-1.515-.023-2.353-.435-1.05-.517-2.042-1.533-2.595-2.658-.343-.698-.376-.892-.376-2.228 0-1.368.028-1.521.423-2.354 1.283-2.706 4.506-3.898 7.17-2.653zm-15.333.27c-1.35.348-2.642 1.408-3.223 2.646-.313.666-.357.926-.357 2.091 0 1.21.035 1.4.394 2.107.831 1.64 2.44 2.63 4.269 2.63 2.02 0 3.64-1.04 4.49-2.885.242-.526.302-.89.302-1.852 0-1.034-.05-1.308-.375-2.01a4.805 4.805 0 00-4.145-2.794c-.517-.022-1.127.009-1.355.067zm11.987 0c-1.351.348-2.642 1.408-3.224 2.646-.312.666-.357.926-.357 2.091 0 1.21.036 1.4.395 2.107.83 1.64 2.44 2.63 4.268 2.63 2.021 0 3.64-1.04 4.49-2.885.242-.526.302-.89.302-1.852.001-1.034-.05-1.308-.375-2.01a4.805 4.805 0 00-4.145-2.794c-.516-.022-1.126.009-1.354.067zm-4.35 1.262c-.163.247-.356.548-.43.668-.11.183-.19.109-.484-.449l-.352-.668h1.561l-.296.45zm-5.277-.16c1.733.596 2.85 2.475 2.517 4.232-.7 3.687-5.557 4.323-7.223.946-.417-.845-.414-2.361.006-3.169.744-1.427 1.89-2.165 3.36-2.165.488 0 1.09.07 1.34.156zm11.986 0c1.733.596 2.851 2.475 2.518 4.232-.7 3.687-5.558 4.323-7.224.946-.417-.845-.414-2.361.007-3.169.743-1.427 1.889-2.165 3.36-2.165.488 0 1.09.07 1.34.156z" fill="#606774"/></svg>