<svg width="217" height="48" fill="none" xmlns="http://www.w3.org/2000/svg"><path d="M104.153 35.88v-3.29l.62-.032c.84-.05 1.506-.353 1.998-.908.498-.556.865-1.45 1.1-2.682.242-1.232.402-2.884.481-4.957l.363-10.01h14.337v21.88h-3.878V17.258h-6.762l-.342 7.98c-.1 2.394-.364 4.377-.791 5.951-.42 1.574-1.111 2.75-2.072 3.526-.955.776-2.283 1.164-3.985 1.164h-1.069zm26.778-5.235l6.571-11.174h3.974v16.41h-3.739V24.694l-6.549 11.185h-3.985V19.47h3.728v11.175zm14.517 5.235V19.47h13.856v16.41h-3.729V22.643h-6.431V35.88h-3.696zm25.098.32c-1.646 0-3.066-.341-4.263-1.025-1.189-.69-2.105-1.666-2.746-2.927-.641-1.268-.961-2.76-.961-4.476 0-1.688.32-3.17.961-4.445.648-1.282 1.553-2.279 2.714-2.991 1.161-.72 2.525-1.08 4.092-1.08 1.011 0 1.965.165 2.863.492.904.32 1.702.82 2.393 1.496.698.677 1.246 1.538 1.645 2.585.399 1.04.599 2.28.599 3.718v1.186h-13.451v-2.607h9.743c-.007-.74-.167-1.4-.48-1.976a3.505 3.505 0 00-1.314-1.378c-.556-.335-1.204-.502-1.945-.502-.79 0-1.485.192-2.083.576a3.98 3.98 0 00-1.4 1.496 4.31 4.31 0 00-.502 2.02v2.275c0 .954.175 1.773.524 2.457a3.739 3.739 0 001.463 1.56c.627.356 1.361.534 2.201.534a4.68 4.68 0 001.528-.235 3.391 3.391 0 001.186-.716c.334-.313.587-.701.758-1.164l3.611.406a5.63 5.63 0 01-1.303 2.5c-.634.705-1.446 1.253-2.436 1.645-.99.385-2.122.577-3.397.577zm24.425-16.73v13.526h2.51v8.162h-3.782V35.88h-12.585V19.47h3.729v13.237h6.431V19.471h3.697zm5.681 16.41V19.47h3.867v6.624h1.41l4.936-6.623h4.658l-6.079 8.055 6.143 8.354h-4.679l-4.498-6.185h-1.891v6.185h-3.867z" fill="#035491"/><path fill-rule="evenodd" clip-rule="evenodd" d="M38.753.018C34.14.193 26.96 1.24 22.858 2.338c-4.55 1.216-8.979 2.954-11.632 4.565-.414.251-.772.457-.795.457-.074 0-1.877 1.227-2.743 1.867-1.115.824-3.494 3.184-4.25 4.217C1.829 15.641.922 17.536.365 19.86c-.416 1.737-.485 4.423-.163 6.294.378 2.19 1.328 4.535 2.591 6.392C6.28 37.67 12.77 41.722 21.463 44.2c4.84 1.38 10.376 2.28 16.453 2.672 2.805.181 9.826.18 12.549-.002 7.31-.49 13.094-1.525 18.558-3.322 4.784-1.574 8.967-3.715 12.004-6.145 1.256-1.006 2.906-2.658 3.722-3.729 2.729-3.578 3.876-7.213 3.579-11.337-.306-4.248-2.04-7.816-5.426-11.159C78.55 6.88 71.674 3.614 63.075 1.76A75.513 75.513 0 0056.32.623C52.126.1 51.089.043 45.335.01c-3.068-.017-6.03-.014-6.581.007zm9.983 2.144c14.924.686 26.178 4.326 32.291 10.44.736.737 1.452 1.478 1.591 1.647.905 1.1 2.131 3.356 2.572 4.733.53 1.655.63 2.387.626 4.584-.002 1.934-.027 2.194-.308 3.242-1.174 4.386-3.912 7.796-8.67 10.802-4.382 2.768-11.05 5.086-17.506 6.086l-2.12.329c-5.538.858-15.2 1.087-21.47.507-3.23-.299-7.28-.87-9.023-1.27l-1.965-.451c-1.994-.456-5.35-1.449-5.542-1.64-.04-.038-.144-.07-.232-.07-.441 0-4.305-1.703-6.05-2.665-3.227-1.78-6.52-4.603-7.81-6.691a4.554 4.554 0 00-.413-.583c-.264-.269-1.345-2.6-1.636-3.526-.494-1.58-.662-2.875-.595-4.617.087-2.278.48-3.858 1.457-5.852 1.133-2.314 2.609-4.068 5.268-6.26 3.497-2.884 9.943-5.625 16.501-7.015 5.041-1.068 8.55-1.479 15.114-1.768 1.848-.08 5.744-.063 7.92.038zm-8.812 2.055c-7.808.414-13.09 1.294-19.074 3.176-1.908.6-5.323 2.095-6.78 2.968-3.785 2.266-6.235 4.644-7.691 7.467-.97 1.88-1.367 3.538-1.368 5.715 0 1.45.179 2.497.682 3.996 1.004 2.995 3.585 5.996 7.065 8.216.494.315.948.616 1.01.67.27.235 3.906 1.95 5.075 2.393 7.737 2.933 17.364 4.25 28.66 3.92 10.019-.291 18.94-2.19 25.27-5.377.92-.463 1.698-.875 1.729-.914.03-.04.231-.161.446-.27.215-.108.415-.228.446-.267.03-.04.332-.244.67-.455 1.491-.933 3.525-2.833 4.697-4.388 1.185-1.571 2.073-3.57 2.4-5.399.218-1.22.152-3.931-.121-5.033-1.453-5.85-7.208-10.615-16.235-13.443-2.039-.64-2.21-.688-3.68-1.04-3.33-.795-7.08-1.363-11.434-1.73-1.877-.16-9.98-.3-11.767-.205zm9.76.49c3.797.22 7.552.676 10.87 1.322 9.695 1.886 16.884 5.654 20.23 10.602 2.478 3.663 2.833 7.986.985 11.988-1.48 3.206-4.81 6.226-9.346 8.478-8.91 4.423-23.274 6.26-37.736 4.825-5.994-.595-11.08-1.743-16.091-3.63-1.136-.428-3.584-1.63-4.773-2.341-3.821-2.29-6.528-5.235-7.687-8.362-.948-2.56-.95-5.7-.005-8.253 1.546-4.175 5.663-7.8 11.82-10.407C23.2 6.706 30.578 5.18 38.305 4.72c2.247-.133 9.155-.142 11.378-.013zm-37.172 18.39l.028 7.328 2.203.03 2.203.03v-5.872l2.37.03 2.37.03.03 2.904.03 2.903h4.347V15.767h-4.346l-.03 2.683-.03 2.683-2.37.03-2.37.03v-5.426h-4.464l.029 7.33zm18.02-2.49l-.033 4.84-.28.553c-.373.741-.804.96-1.812.917l-.753-.032v1.79c0 2.104-.138 1.937 1.608 1.952 2.32.02 3.876-.75 4.732-2.341.64-1.193.715-1.716.788-5.55l.067-3.484h2.788l.03 5.614.028 5.614h4.237V15.767H30.565l-.033 4.84zm15.08-4.686c0 .154-.198 1.607-.9 6.594a1609.93 1609.93 0 00-.668 4.813 153.763 153.763 0 01-.398 2.793l-.066.36h2.076c1.142 0 2.076-.038 2.077-.084.003-.371.985-7.57 1.04-7.624.036-.035.286.773 1.707 5.525l.654 2.187 1.495-.03 1.495-.03.245-.885c.246-.888 1.574-5.342 1.856-6.223.082-.258.178-.47.212-.47.035 0 .278 1.655.541 3.678.263 2.024.497 3.741.52 3.817.032.104.541.138 2.054.138 1.534 0 2.01-.032 2.01-.138 0-.184-.666-5.012-1.61-11.673a300.794 300.794 0 01-.397-2.848c0-.03-.997-.054-2.217-.054h-2.217l-.528 1.853c-.29 1.02-.728 2.55-.972 3.402a241.02 241.02 0 00-.64 2.277c-.109.4-.25.822-.315.936-.102.181-.131.153-.232-.23-.302-1.148-.503-1.864-1.288-4.587a536.033 536.033 0 01-.935-3.264l-.09-.331-2.254-.03c-1.897-.026-2.255-.005-2.255.128zm17.624 7.203v7.356h4.458l.03-2.959.03-2.959.693 1.05c.382.579.747 1.127.812 1.218.066.091.632.937 1.26 1.88l1.14 1.715 2.657.03 2.657.03-.88-1.137a1040.77 1040.77 0 01-2.538-3.293 214.796 214.796 0 00-1.972-2.541c-.381-.465-.386-.536-.065-.89.138-.151 1.176-1.495 2.307-2.985 1.13-1.49 2.247-2.941 2.481-3.223.235-.282.427-.544.427-.581 0-.037-1.078-.068-2.396-.068h-2.396l-.196.305a4.731 4.731 0 01-.31.431c-.061.07-.635.867-1.273 1.77-.639.904-1.442 2.035-1.785 2.514l-.623.871-.03-2.945-.03-2.946h-4.458v7.357z" fill="#035491"/></svg>