<svg width="193" height="38" fill="none" xmlns="http://www.w3.org/2000/svg"><path d="M24.616 12.515a6.385 6.385 0 00-.888-1.971A5.676 5.676 0 0022.29 9.07a6.169 6.169 0 00-1.953-.905 8.636 8.636 0 00-2.415-.32c-1.764 0-3.29.426-4.581 1.279-1.278.852-2.267 2.095-2.965 3.728-.699 1.622-1.048 3.593-1.048 5.913 0 2.332.337 4.32 1.012 5.966.675 1.645 1.652 2.9 2.93 3.764 1.278.864 2.829 1.296 4.652 1.296 1.61 0 2.971-.26 4.084-.781 1.124-.533 1.977-1.284 2.556-2.255.58-.97.87-2.113.87-3.427l1.634.195h-8.842v-6.41h15.678v4.812c0 3.256-.693 6.043-2.077 8.363-1.373 2.32-3.267 4.102-5.682 5.345-2.403 1.243-5.167 1.864-8.292 1.864-3.468 0-6.516-.752-9.144-2.255s-4.676-3.646-6.144-6.427C1.095 26.02.362 22.707.362 18.87c0-2.982.443-5.628 1.331-7.936.888-2.32 2.125-4.285 3.711-5.895a16.038 16.038 0 015.54-3.658C13.05.554 15.318.14 17.744.14c2.107 0 4.066.302 5.877.906 1.823.603 3.433 1.456 4.83 2.557a13.554 13.554 0 013.427 3.924c.876 1.515 1.42 3.178 1.633 4.989h-8.895zM39.082 37V.636h25.355v7.138H47.871v7.458h15.27v7.155h-15.27v7.475h16.566V37H39.082zm30.86 0V.636h24.822v7.138H78.731v7.458h14.453v7.155H78.73V37h-8.79zm29.248 0V.636h25.355v7.138h-16.566v7.458h15.27v7.155h-15.27v7.475h16.566V37H99.19zm50.515-25.462c-.119-1.302-.646-2.314-1.581-3.036-.923-.734-2.243-1.1-3.959-1.1-1.137 0-2.084.147-2.841.443-.758.296-1.326.704-1.705 1.225a2.965 2.965 0 00-.586 1.758c-.023.545.083 1.024.32 1.438.249.415.604.782 1.065 1.101.474.308 1.042.58 1.705.817s1.408.444 2.237.621l3.125.71c1.799.391 3.386.912 4.759 1.563 1.385.651 2.545 1.427 3.48 2.326a8.992 8.992 0 012.148 3.107c.485 1.172.734 2.486.746 3.942-.012 2.297-.592 4.267-1.74 5.913-1.148 1.645-2.8 2.906-4.954 3.782-2.143.876-4.729 1.314-7.759 1.314-3.042 0-5.694-.456-7.955-1.368-2.261-.911-4.018-2.296-5.273-4.154-1.255-1.859-1.9-4.209-1.936-7.05h8.417c.071 1.172.384 2.15.941 2.93.556.782 1.32 1.373 2.29 1.776.983.402 2.119.604 3.409.604 1.184 0 2.19-.16 3.019-.48.84-.32 1.485-.763 1.935-1.331a3.15 3.15 0 00.693-1.954c-.012-.686-.225-1.272-.64-1.757-.414-.498-1.053-.924-1.917-1.279-.853-.367-1.942-.704-3.267-1.012l-3.8-.888c-3.149-.722-5.629-1.888-7.44-3.498-1.811-1.621-2.71-3.811-2.699-6.57-.011-2.248.592-4.22 1.812-5.912 1.219-1.693 2.906-3.012 5.06-3.96 2.154-.946 4.61-1.42 7.369-1.42 2.817 0 5.261.48 7.333 1.438 2.083.947 3.699 2.28 4.847 3.995 1.148 1.717 1.734 3.705 1.758 5.966h-8.416zm12.162-3.764V.636h30.735v7.138h-11.026V37h-8.665V7.774h-11.044z" fill="#556686"/></svg>