<svg width="32" height="43" fill="none" xmlns="http://www.w3.org/2000/svg"><path fill-rule="evenodd" clip-rule="evenodd" d="M6.128.81c-.804.502-1.008 1.083-1.008 2.87v1.567h-1.8C.413 5.25 0 5.708 0 8.93c0 1.771.021 1.898.35 2.078.297.163.392.137.64-.176.24-.306.29-.673.29-2.152 0-2.265.054-2.318 2.261-2.248l1.499.047.08.91c.096 1.09.424 1.655 1.172 2.02.701.34 1.115.34 1.816 0 .748-.365 1.076-.93 1.172-2.02l.08-.91h4.48l.08.91c.096 1.09.424 1.655 1.172 2.02.701.34 1.115.34 1.816 0 .748-.365 1.076-.93 1.172-2.02l.08-.91h4.48l.08.91c.096 1.09.424 1.655 1.172 2.02.701.34 1.115.34 1.816 0 .748-.365 1.076-.93 1.172-2.02l.08-.91 1.498-.047c1.15-.037 1.588.012 1.88.209l.382.256V19.92c0 12.343.015 13.044.29 13.392.248.314.343.34.64.177l.35-.192V20.17c0-14.463.035-13.95-.99-14.59-.449-.28-.807-.332-2.33-.332h-1.8V3.68c0-1.787-.204-2.368-1.008-2.87-.996-.624-2.375-.238-2.904.811-.173.343-.248.965-.248 2.059v1.567h-4.64V3.68c0-1.787-.204-2.368-1.008-2.87-.975-.61-2.242-.292-2.838.712-.254.426-.313.828-.313 2.125l-.001 1.6H9.28v-1.6c-.001-1.297-.06-1.7-.314-2.125C8.37.518 7.103.2 6.128.81zm1.74 1.263c.26.241.292.562.292 2.917 0 2.967-.116 3.375-.96 3.375-.842 0-.96-.41-.96-3.347 0-2.205.042-2.664.265-2.917.33-.374.976-.387 1.362-.028zm8.8 0c.26.241.292.562.292 2.917 0 2.967-.116 3.375-.96 3.375-.842 0-.96-.41-.96-3.347 0-2.205.042-2.664.265-2.917.33-.374.976-.387 1.362-.028zm8.8 0c.26.241.292.562.292 2.917 0 2.967-.116 3.375-.96 3.375-.842 0-.96-.41-.96-3.347 0-2.205.042-2.664.265-2.917.33-.374.976-.387 1.362-.028zM.097 13.056C.043 13.199 0 19.496 0 27.049 0 40.036.016 40.812.292 41.34c.161.308.538.694.838.86.516.283 1.302.299 14.87.299s14.354-.016 14.87-.3c.971-.534 1.13-1.083 1.13-3.91 0-1.37-.044-2.608-.097-2.751-.136-.364-.818-.325-1.017.058-.093.178-.166 1.389-.166 2.757 0 1.678-.06 2.5-.192 2.636-.278.286-28.778.286-29.056 0-.146-.15-.192-3.456-.192-13.878 0-9.117-.055-13.787-.166-13.998-.2-.383-.88-.422-1.017-.058zm9.702.03c-.154.16-.92 1.082-1.703 2.051-.782.97-1.466 1.761-1.52 1.76-.053 0-.264-.3-.467-.666-.308-.552-.443-.656-.8-.614-.684.081-.628.627.196 1.934.4.634.835 1.153.967 1.153.271 0 .581-.336 2.646-2.872 1.78-2.185 1.946-2.49 1.524-2.808-.395-.295-.505-.287-.843.062zm2.76 2.164c-1.023.434-1.465 1.817-.885 2.767.624 1.021.733 1.034 8.164.981 6.505-.046 6.711-.058 7.15-.39.248-.189.545-.642.66-1.008.271-.86-.037-1.697-.8-2.174-.51-.319-.782-.33-7.25-.321-3.695.005-6.863.07-7.04.145zm13.902 1.526c.128.21.128.365 0 .574-.163.265-.692.29-6.781.33-4.742.031-6.666-.01-6.823-.143-.228-.194-.296-.831-.11-1.023.06-.06 3.13-.092 6.823-.068 6.194.04 6.728.065 6.89.33zM8.292 23.05c-1.616 2.004-1.657 2.041-1.892 1.688-.632-.953-.932-1.2-1.23-1.012-.477.3-.425.651.278 1.864.962 1.66 1.012 1.643 3.25-1.13 2.285-2.831 2.305-2.863 2.033-3.2-.427-.527-.784-.265-2.44 1.79zm3.99.505c-.48.267-.922 1.009-.922 1.546 0 .633.45 1.455.94 1.715.417.221 1.43.257 7.35.257 6.802 0 6.87-.004 7.308-.356.807-.651 1.047-1.879.51-2.606-.61-.825-.496-.813-7.864-.806-5.777.005-6.954.046-7.322.25zm13.968 1.062c.403.22.403.916 0 1.137-.423.233-12.877.233-13.3 0-.346-.19-.412-.809-.118-1.11.252-.258 12.95-.284 13.418-.027zM8.267 31.245l-1.664 2.037-.506-.735c-.526-.765-.878-.867-1.198-.347-.134.219-.101.424.143.892.564 1.077 1.193 1.859 1.495 1.859.186 0 .973-.843 2.108-2.257.997-1.24 1.914-2.38 2.038-2.531.324-.396.108-.956-.368-.956-.295 0-.769.472-2.048 2.038zm4.256.339c-1.217.543-1.488 2.124-.532 3.106l.495.507 6.926.046 6.926.046.551-.38a2.12 2.12 0 00.777-1.044c.205-.604.198-.724-.08-1.307-.581-1.22-.562-1.218-7.986-1.21-5.27.004-6.662.05-7.077.236zm13.939 1.439c.128.21.128.365 0 .574-.164.266-.674.287-6.96.287H12.72l-.052-.378c-.12-.869-.201-.86 6.976-.813 6.124.04 6.655.065 6.818.33z" fill="#fff"/></svg>