<svg width="217" height="48" viewBox="0 0 217 48" fill="none" xmlns="http://www.w3.org/2000/svg">
<path d="M104.153 35.8804V32.5899L104.773 32.5578C105.613 32.508 106.279 32.2053 106.771 31.6497C107.269 31.0942 107.636 30.2003 107.871 28.9682C108.113 27.736 108.273 26.0836 108.352 24.011L108.715 14.0006H123.052V35.8804H119.174V17.2591H112.412L112.07 25.2396C111.97 27.6327 111.706 29.6163 111.279 31.1903C110.859 32.7644 110.168 33.9395 109.207 34.7159C108.252 35.4922 106.924 35.8804 105.222 35.8804H104.153ZM130.931 30.6455L137.502 19.4706H141.476V35.8804H137.737V24.6948L131.188 35.8804H127.203V19.4706H130.931V30.6455ZM145.448 35.8804V19.4706H159.304V35.8804H155.575V22.6435H149.144V35.8804H145.448ZM170.546 36.2009C168.9 36.2009 167.48 35.859 166.283 35.1753C165.094 34.4844 164.178 33.5086 163.537 32.248C162.896 30.9802 162.576 29.4881 162.576 27.7716C162.576 26.0836 162.896 24.6022 163.537 23.3273C164.185 22.0453 165.09 21.0481 166.251 20.3359C167.412 19.6166 168.776 19.2569 170.343 19.2569C171.354 19.2569 172.308 19.4207 173.206 19.7483C174.11 20.0688 174.908 20.5674 175.599 21.244C176.297 21.9206 176.845 22.7824 177.244 23.8294C177.643 24.8693 177.843 26.1086 177.843 27.5473V28.7331H164.392V26.1264H174.135C174.128 25.3856 173.968 24.7268 173.655 24.1499C173.341 23.5659 172.903 23.1065 172.341 22.7717C171.785 22.437 171.137 22.2696 170.396 22.2696C169.606 22.2696 168.911 22.4619 168.313 22.8465C167.715 23.224 167.248 23.7226 166.913 24.3422C166.586 24.9547 166.418 25.6278 166.411 26.3614V28.637C166.411 29.5914 166.586 30.4104 166.935 31.0942C167.284 31.7708 167.772 32.2907 168.398 32.654C169.025 33.0101 169.759 33.1881 170.599 33.1881C171.162 33.1881 171.671 33.1098 172.127 32.9531C172.583 32.7893 172.978 32.5507 173.313 32.2373C173.647 31.9239 173.9 31.5358 174.071 31.0728L177.682 31.4788C177.454 32.4332 177.02 33.2665 176.379 33.9787C175.745 34.6838 174.933 35.2322 173.943 35.624C172.953 36.0086 171.821 36.2009 170.546 36.2009ZM194.971 19.4706V32.9958H197.481V41.158H193.699V35.8804H181.114V19.4706H184.843V32.7074H191.274V19.4706H194.971ZM200.652 35.8804V19.4706H204.519V26.0943H205.929L210.865 19.4706H215.523L209.444 27.5259L215.587 35.8804H210.908L206.41 29.6946H204.519V35.8804H200.652Z" fill="#035491"/>
<path fill-rule="evenodd" clip-rule="evenodd" d="M38.7527 0.0179434C34.1411 0.19273 26.9604 1.24067 22.858 2.33752C18.3075 3.55427 13.879 5.29218 11.2264 6.90254C10.8119 7.1541 10.454 7.35986 10.4309 7.35986C10.3572 7.35986 8.55412 8.58724 7.68833 9.22687C6.57325 10.0507 4.19396 12.4114 3.43782 13.4442C1.82905 15.6414 0.921771 17.536 0.365178 19.8604C-0.0507603 21.5973 -0.120251 24.2826 0.202439 26.1541C0.580119 28.3446 1.53034 30.6889 2.79333 32.5456C6.27934 37.6704 12.7696 41.7219 21.4637 44.2004C26.3022 45.5799 31.8394 46.4791 37.9161 46.872C40.7207 47.0534 47.7417 47.0521 50.4646 46.8697C57.7752 46.38 63.5588 45.3447 69.0226 43.5479C73.8074 41.9742 77.9902 39.833 81.027 37.4026C82.2833 36.3971 83.9326 34.745 84.7491 33.6742C87.4776 30.0962 88.6252 26.4609 88.328 22.3372C88.022 18.0885 86.2873 14.521 82.9023 11.1782C78.5497 6.87997 71.6736 3.61379 63.0751 1.76017C60.8501 1.2805 58.7085 0.919975 56.3205 0.622948C52.1247 0.101023 51.088 0.0432764 45.3336 0.0110847C42.2662 -0.00606208 39.3048 -0.00296456 38.7527 0.0179434ZM48.7357 2.16151C63.6597 2.84838 74.9144 6.48759 81.027 12.6029C81.7631 13.3394 82.4792 14.0803 82.6183 14.2492C83.5232 15.3486 84.7493 17.6052 85.1899 18.9823C85.7195 20.6371 85.8196 21.3694 85.8163 23.5663C85.8135 25.4995 85.7888 25.7596 85.5081 26.8075C84.3337 31.1937 81.5963 34.6041 76.8372 37.6103C72.4561 40.3777 65.7889 42.6956 59.3321 43.6961C58.7493 43.7865 57.7956 43.9343 57.2128 44.0247C51.6738 44.8835 42.0118 45.1118 35.7411 44.5319C32.512 44.2333 28.4622 43.6629 26.7186 43.2611C26.3437 43.1747 25.4597 42.9721 24.7542 42.8108C22.7604 42.3549 19.4042 41.3624 19.2121 41.1719C19.1724 41.1325 19.068 41.1003 18.9803 41.1003C18.539 41.1003 14.6747 39.3985 12.9308 38.4361C9.70333 36.6552 6.4094 33.833 5.12065 31.7447C4.97308 31.5056 4.7868 31.2432 4.7066 31.1617C4.44269 30.8932 3.36186 28.5626 3.0714 27.6358C2.5766 26.0567 2.4094 24.7606 2.4761 23.0192C2.56333 20.7407 2.95651 19.1613 3.93273 17.1674C5.0661 14.8527 6.54169 13.0988 9.20073 10.9061C12.6978 8.0225 19.1444 5.28245 25.7023 3.89234C30.7432 2.82382 34.2523 2.41329 40.8162 2.12445C42.6638 2.04314 46.5597 2.0614 48.7357 2.16151ZM39.9239 4.21713C32.1161 4.6312 26.8347 5.51067 20.8502 7.39327C18.9418 7.99363 15.5267 9.48828 14.0694 10.3609C10.2854 12.6267 7.83546 15.0053 6.37872 17.8277C5.40865 19.7072 5.01178 21.3665 5.01145 23.5433C5.01133 24.9929 5.18969 26.0398 5.69263 27.5394C6.69662 30.5338 9.27814 33.5355 12.7578 35.7546C13.2517 36.0697 13.7064 36.3714 13.7682 36.4253C14.0376 36.6602 17.6741 38.3746 18.8425 38.8177C26.5797 41.751 36.2071 43.0681 47.5036 42.7386C57.5219 42.4466 66.443 40.5481 72.7729 37.3612C73.6931 36.8979 74.4711 36.4863 74.5018 36.4466C74.5324 36.4068 74.7332 36.2857 74.9479 36.1775C75.1627 36.0693 75.3634 35.9486 75.3941 35.9096C75.4248 35.8704 75.7258 35.6658 76.0631 35.4548C77.5552 34.5216 79.5892 32.6222 80.7612 31.0674C81.9461 29.4958 82.8339 27.4979 83.1606 25.6682C83.3786 24.4479 83.3133 21.737 83.0396 20.6348C81.5872 14.7856 75.8321 10.0202 66.8054 7.19182C64.7661 6.55286 64.5944 6.5044 63.1245 6.15295C59.7947 5.35668 56.0445 4.78873 51.6915 4.42135C49.8143 4.26293 41.7119 4.12233 39.9239 4.21713ZM49.6838 4.7062C53.4809 4.92624 57.2357 5.383 60.5539 6.02872C70.2489 7.9152 77.4377 11.6826 80.7849 16.6313C83.262 20.2935 83.6168 24.6168 81.7687 28.6188C80.2882 31.8247 76.9591 34.8447 72.4233 37.0966C63.513 41.5202 49.1486 43.357 34.6872 41.9218C28.6934 41.327 23.6066 40.1793 18.5957 38.2915C17.4597 37.8635 15.0116 36.6628 13.8231 35.9508C10.002 33.6615 7.29481 30.7165 6.13634 27.589C5.18813 25.0288 5.18612 21.8888 6.13121 19.3362C7.67696 15.1612 11.7942 11.5359 17.9502 8.9294C23.2002 6.7064 30.5789 5.18045 38.3065 4.71948C40.5528 4.58551 47.4608 4.57744 49.6838 4.7062ZM12.5117 23.0962L12.5404 30.425L14.7433 30.455L16.9463 30.485V27.5489V24.6128L19.3165 24.6427L21.6868 24.6726L21.7166 27.5765L21.7463 30.4804H23.9195H26.0927V23.1238V15.7673H23.9196H21.7466L21.7167 18.45L21.6868 21.1326L19.3165 21.1625L16.9463 21.1923V18.4798V15.7673H14.7147H12.4831L12.5117 23.0962ZM30.5319 20.6071L30.4986 25.4469L30.2197 26.0001C29.846 26.7415 29.4146 26.9596 28.407 26.9169L27.6537 26.8851L27.6541 28.6753C27.6543 30.7795 27.5161 30.6116 29.2615 30.627C31.5822 30.6477 33.1379 29.8779 33.9938 28.2855C34.6346 27.093 34.7087 26.5704 34.7821 22.7366L34.8487 19.252H36.243H37.6373L37.6662 24.8662L37.695 30.4804H39.8133H41.9316V23.1238V15.7673H36.2485H30.5653L30.5319 20.6071ZM45.6125 15.9213C45.6125 16.0748 45.4142 17.5282 44.7125 22.5154C44.5284 23.8235 44.2279 25.989 44.0445 27.3276C43.8613 28.6661 43.6817 29.923 43.6456 30.1208L43.5799 30.4804H45.6559C46.7976 30.4804 47.7321 30.4431 47.7326 30.3974C47.7358 30.026 48.7181 22.8278 48.7729 22.7734C48.8091 22.7375 49.0589 23.5461 50.4797 28.2978L51.1338 30.485L52.629 30.455L54.1243 30.425L54.3693 29.54C54.6152 28.6517 55.9431 24.1976 56.2246 23.3174C56.3072 23.0589 56.403 22.8473 56.4375 22.8473C56.472 22.8473 56.7153 24.5024 56.9782 26.5255C57.2411 28.5486 57.4752 30.2661 57.4984 30.3421C57.53 30.4461 58.0395 30.4804 59.5517 30.4804C61.0863 30.4804 61.5629 30.4476 61.5628 30.3421C61.5628 30.1583 60.8963 25.3295 59.9516 18.6694C59.7336 17.1321 59.5552 15.8503 59.5552 15.8209C59.5552 15.7914 58.5576 15.7673 57.3383 15.7673H55.1215L54.5929 17.6203C54.3023 18.6395 53.8651 20.1702 53.6215 21.022C53.3779 21.8738 53.0895 22.8985 52.9807 23.2992C52.872 23.6997 52.7303 24.1208 52.666 24.2347C52.5635 24.4163 52.5349 24.3878 52.434 24.0041C52.1324 22.8568 51.9313 22.1406 51.1458 19.4179C50.6806 17.8056 50.26 16.337 50.2109 16.1545L50.1218 15.8226L47.8671 15.7926C45.9696 15.7674 45.6125 15.7879 45.6125 15.9213ZM63.2361 23.1238V30.4804H65.4651H67.694L67.7238 27.5212L67.7535 24.562L68.4471 25.6129C68.8285 26.1909 69.194 26.7385 69.2592 26.8298C69.3245 26.921 69.8909 27.7673 70.5181 28.7104L71.6584 30.425L74.3159 30.4547L76.9734 30.4844L76.0921 29.3484C75.6074 28.7238 74.4655 27.2418 73.5548 26.0554C72.6439 24.8689 71.7565 23.7251 71.5828 23.5135C71.2018 23.0493 71.1966 22.9778 71.518 22.6243C71.656 22.4725 72.694 21.1288 73.8246 19.6385C74.9552 18.1483 76.0721 16.698 76.3064 16.4157C76.5409 16.1335 76.7326 15.8721 76.7326 15.8349C76.7326 15.7977 75.6546 15.7673 74.337 15.7673H71.9414L71.7451 16.0715C71.6372 16.2388 71.498 16.4332 71.4358 16.5033C71.3737 16.5734 70.8003 17.3699 70.1616 18.2733C69.523 19.1766 68.7199 20.3078 68.3769 20.7869L67.7535 21.6581L67.7238 18.7127L67.694 15.7673H65.4651H63.2361V23.1238Z" fill="#035491"/>
</svg>
